<svg width="36" height="40" viewBox="0 0 36 40" fill="none" xmlns="http://www.w3.org/2000/svg">
<path d="M13 0H30.5C33.249 0 35.5 2.24998 35.5 5V10C35.5 12.75 33.249 15 30.5 15H13C10.251 15 8 12.75 8 10V5C8 2.24998 10.251 0 13 0Z" fill="#6B6C7E"/>
<path d="M28 25H30.4219C30.4609 25 30.5 25.0391 30.5 25.0781V39.9219C30.5 39.9609 30.4609 40 30.4219 40H20.5781C20.5391 40 20.5 39.9609 20.5 39.9219V25.0781C20.5 25.0391 20.5391 25 20.5781 25H23V22.5H3C1.61816 22.5 0.5 21.3828 0.5 20V10C0.5 8.61717 1.61816 7.5 3 7.5C4.38184 7.5 5.5 8.61717 5.5 10V17.5H25.5C26.8818 17.5 28 18.6172 28 20V25Z" fill="#6B6C7E"/>
</svg>
