<svg width="68" height="36" viewBox="0 0 68 36" fill="none" xmlns="http://www.w3.org/2000/svg">
<path d="M19.9393 16.9393C19.3536 17.5251 19.3536 18.4749 19.9393 19.0607L29.4853 28.6066C30.0711 29.1924 31.0208 29.1924 31.6066 28.6066C32.1924 28.0208 32.1924 27.0711 31.6066 26.4853L23.1213 18L31.6066 9.51472C32.1924 8.92893 32.1924 7.97919 31.6066 7.3934C31.0208 6.80761 30.0711 6.80761 29.4853 7.3934L19.9393 16.9393ZM49 16.5L21 16.5V19.5L49 19.5V16.5Z" fill="black"/>
<path d="M63.7931 30.9684V34L4.2069 34V30.9684H2L2 5.36842H4.2069V2L63.7931 2V5.36842H66L66 30.9684H63.7931Z" stroke="black" stroke-width="4"/>
</svg>
