<svg width="716" height="82" viewBox="0 0 716 82" fill="none" xmlns="http://www.w3.org/2000/svg">
<g filter="url(#filter0_d_104_67697)">
<path d="M0 68H44.5V63.55H48.95V45.75H44.5V41.3H31.15H17.8V32.4H48.95V23.5H4.45V27.95H0V45.75H4.45V50.2H31.15V59.1H0V68ZM71.1652 54.65H75.6152V59.1H80.0652V63.55H84.5152V68H106.765V59.1H102.315V54.65H97.8652V50.2H93.4152V41.3H97.8652V36.85H102.315V32.4H106.765V23.5H102.315H84.5152V27.95H80.0652V32.4H75.6152V36.85H71.1652V23.5H53.3652V68H71.1652V54.65ZM129.05 50.2H142.4V68H160.2V50.2H155.75V41.3H160.2V27.95H155.75V23.5H142.4H129.05H111.25V68H129.05V50.2ZM129.05 32.4H142.4V41.3H129.05V32.4ZM164.615 32.4H177.965V59.1H164.615V68H209.115V59.1H195.765V32.4H209.115V23.5H164.615V32.4ZM258.048 63.55H262.498V50.2H258.048V41.3H262.498V27.95H258.048V23.5H231.348H213.548V68H258.048V63.55ZM231.348 50.2H244.698V59.1H231.348V50.2ZM231.348 32.4H244.698V41.3H231.348V32.4ZM311.413 63.55H315.863V50.2H311.413V41.3H315.863V27.95H311.413V23.5H284.713H266.913V68H311.413V63.55ZM284.713 50.2H298.063V59.1H284.713V50.2ZM284.713 32.4H298.063V41.3H284.713V32.4ZM320.278 68H369.228V59.1H338.078V23.5H320.278V68ZM449.259 63.55H453.709V45.75H449.259V41.3H427.009V50.2H435.909V59.1H422.559V32.4H453.709V23.5H409.209V27.95H404.759V63.55H409.209V68H449.259V63.55ZM475.924 50.2H489.274V68H507.074V27.95H502.624V23.5H489.274H462.574V27.95H458.124V68H475.924V50.2ZM475.924 32.4H489.274V41.3H475.924V32.4ZM529.289 45.75H533.739V50.2H538.189V54.65H542.639V50.2H547.089V45.75H551.539V68H569.339V23.5H551.539V27.95H547.089V32.4H542.639V36.85H538.189V32.4H533.739V27.95H529.289V23.5H511.489V68H529.289V45.75ZM578.257 68H622.757V59.1H591.607V50.2H604.957V41.3H591.607V32.4H622.757V23.5H578.257V27.95H573.807V63.55H578.257V68Z" fill="#FFC700"/>
<path d="M0 68H-2V70H0V68ZM44.5 68V70H46.5V68H44.5ZM44.5 63.55V61.55H42.5V63.55H44.5ZM48.95 63.55V65.55H50.95V63.55H48.95ZM48.95 45.75H50.95V43.75H48.95V45.75ZM44.5 45.75H42.5V47.75H44.5V45.75ZM44.5 41.3H46.5V39.3H44.5V41.3ZM17.8 41.3H15.8V43.3H17.8V41.3ZM17.8 32.4V30.4H15.8V32.4H17.8ZM48.95 32.4V34.4H50.95V32.4H48.95ZM48.95 23.5H50.95V21.5H48.95V23.5ZM4.45 23.5V21.5H2.45V23.5H4.45ZM4.45 27.95V29.95H6.45V27.95H4.45ZM0 27.95V25.95H-2V27.95H0ZM0 45.75H-2V47.75H0V45.75ZM4.45 45.75H6.45V43.75H4.45V45.75ZM4.45 50.2H2.45V52.2H4.45V50.2ZM31.15 50.2H33.15V48.2H31.15V50.2ZM31.15 59.1V61.1H33.15V59.1H31.15ZM0 59.1V57.1H-2V59.1H0ZM0 70H44.5V66H0V70ZM46.5 68V63.55H42.5V68H46.5ZM44.5 65.55H48.95V61.55H44.5V65.55ZM50.95 63.55V45.75H46.95V63.55H50.95ZM48.95 43.75H44.5V47.75H48.95V43.75ZM46.5 45.75V41.3H42.5V45.75H46.5ZM44.5 39.3H31.15V43.3H44.5V39.3ZM31.15 39.3H17.8V43.3H31.15V39.3ZM19.8 41.3V32.4H15.8V41.3H19.8ZM17.8 34.4H48.95V30.4H17.8V34.4ZM50.95 32.4V23.5H46.95V32.4H50.95ZM48.95 21.5H4.45V25.5H48.95V21.5ZM2.45 23.5V27.95H6.45V23.5H2.45ZM4.45 25.95H0V29.95H4.45V25.95ZM-2 27.95V45.75H2V27.95H-2ZM0 47.75H4.45V43.75H0V47.75ZM2.45 45.75V50.2H6.45V45.75H2.45ZM4.45 52.2H31.15V48.2H4.45V52.2ZM29.15 50.2V59.1H33.15V50.2H29.15ZM31.15 57.1H0V61.1H31.15V57.1ZM-2 59.1V68H2V59.1H-2ZM71.1652 54.65V52.65H69.1652V54.65H71.1652ZM75.6152 54.65H77.6152V52.65H75.6152V54.65ZM75.6152 59.1H73.6152V61.1H75.6152V59.1ZM80.0652 59.1H82.0652V57.1H80.0652V59.1ZM80.0652 63.55H78.0652V65.55H80.0652V63.55ZM84.5152 63.55H86.5152V61.55H84.5152V63.55ZM84.5152 68H82.5152V70H84.5152V68ZM106.765 68V70H108.765V68H106.765ZM106.765 59.1H108.765V57.1H106.765V59.1ZM102.315 59.1H100.315V61.1H102.315V59.1ZM102.315 54.65H104.315V52.65H102.315V54.65ZM97.8652 54.65H95.8652V56.65H97.8652V54.65ZM97.8652 50.2H99.8652V48.2H97.8652V50.2ZM93.4152 50.2H91.4152V52.2H93.4152V50.2ZM93.4152 41.3V39.3H91.4152V41.3H93.4152ZM97.8652 41.3V43.3H99.8652V41.3H97.8652ZM97.8652 36.85V34.85H95.8652V36.85H97.8652ZM102.315 36.85V38.85H104.315V36.85H102.315ZM102.315 32.4V30.4H100.315V32.4H102.315ZM106.765 32.4V34.4H108.765V32.4H106.765ZM106.765 23.5H108.765V21.5H106.765V23.5ZM84.5152 23.5V21.5H82.5152V23.5H84.5152ZM84.5152 27.95V29.95H86.5152V27.95H84.5152ZM80.0652 27.95V25.95H78.0652V27.95H80.0652ZM80.0652 32.4V34.4H82.0652V32.4H80.0652ZM75.6152 32.4V30.4H73.6152V32.4H75.6152ZM75.6152 36.85V38.85H77.6152V36.85H75.6152ZM71.1652 36.85H69.1652V38.85H71.1652V36.85ZM71.1652 23.5H73.1652V21.5H71.1652V23.5ZM53.3652 23.5V21.5H51.3652V23.5H53.3652ZM53.3652 68H51.3652V70H53.3652V68ZM71.1652 68V70H73.1652V68H71.1652ZM71.1652 56.65H75.6152V52.65H71.1652V56.65ZM73.6152 54.65V59.1H77.6152V54.65H73.6152ZM75.6152 61.1H80.0652V57.1H75.6152V61.1ZM78.0652 59.1V63.55H82.0652V59.1H78.0652ZM80.0652 65.55H84.5152V61.55H80.0652V65.55ZM82.5152 63.55V68H86.5152V63.55H82.5152ZM84.5152 70H106.765V66H84.5152V70ZM108.765 68V59.1H104.765V68H108.765ZM106.765 57.1H102.315V61.1H106.765V57.1ZM104.315 59.1V54.65H100.315V59.1H104.315ZM102.315 52.65H97.8652V56.65H102.315V52.65ZM99.8652 54.65V50.2H95.8652V54.65H99.8652ZM97.8652 48.2H93.4152V52.2H97.8652V48.2ZM95.4152 50.2V41.3H91.4152V50.2H95.4152ZM93.4152 43.3H97.8652V39.3H93.4152V43.3ZM99.8652 41.3V36.85H95.8652V41.3H99.8652ZM97.8652 38.85H102.315V34.85H97.8652V38.85ZM104.315 36.85V32.4H100.315V36.85H104.315ZM102.315 34.4H106.765V30.4H102.315V34.4ZM108.765 32.4V23.5H104.765V32.4H108.765ZM106.765 21.5H102.315V25.5H106.765V21.5ZM102.315 21.5H84.5152V25.5H102.315V21.5ZM82.5152 23.5V27.95H86.5152V23.5H82.5152ZM84.5152 25.95H80.0652V29.95H84.5152V25.95ZM78.0652 27.95V32.4H82.0652V27.95H78.0652ZM80.0652 30.4H75.6152V34.4H80.0652V30.4ZM73.6152 32.4V36.85H77.6152V32.4H73.6152ZM75.6152 34.85H71.1652V38.85H75.6152V34.85ZM73.1652 36.85V23.5H69.1652V36.85H73.1652ZM71.1652 21.5H53.3652V25.5H71.1652V21.5ZM51.3652 23.5V68H55.3652V23.5H51.3652ZM53.3652 70H71.1652V66H53.3652V70ZM73.1652 68V54.65H69.1652V68H73.1652ZM129.05 50.2V48.2H127.05V50.2H129.05ZM142.4 50.2H144.4V48.2H142.4V50.2ZM142.4 68H140.4V70H142.4V68ZM160.2 68V70H162.2V68H160.2ZM160.2 50.2H162.2V48.2H160.2V50.2ZM155.75 50.2H153.75V52.2H155.75V50.2ZM155.75 41.3V39.3H153.75V41.3H155.75ZM160.2 41.3V43.3H162.2V41.3H160.2ZM160.2 27.95H162.2V25.95H160.2V27.95ZM155.75 27.95H153.75V29.95H155.75V27.95ZM155.75 23.5H157.75V21.5H155.75V23.5ZM111.25 23.5V21.5H109.25V23.5H111.25ZM111.25 68H109.25V70H111.25V68ZM129.05 68V70H131.05V68H129.05ZM129.05 32.4V30.4H127.05V32.4H129.05ZM142.4 32.4H144.4V30.4H142.4V32.4ZM142.4 41.3V43.3H144.4V41.3H142.4ZM129.05 41.3H127.05V43.3H129.05V41.3ZM129.05 52.2H142.4V48.2H129.05V52.2ZM140.4 50.2V68H144.4V50.2H140.4ZM142.4 70H160.2V66H142.4V70ZM162.2 68V50.2H158.2V68H162.2ZM160.2 48.2H155.75V52.2H160.2V48.2ZM157.75 50.2V41.3H153.75V50.2H157.75ZM155.75 43.3H160.2V39.3H155.75V43.3ZM162.2 41.3V27.95H158.2V41.3H162.2ZM160.2 25.95H155.75V29.95H160.2V25.95ZM157.75 27.95V23.5H153.75V27.95H157.75ZM155.75 21.5H142.4V25.5H155.75V21.5ZM142.4 21.5H129.05V25.5H142.4V21.5ZM129.05 21.5H111.25V25.5H129.05V21.5ZM109.25 23.5V68H113.25V23.5H109.25ZM111.25 70H129.05V66H111.25V70ZM131.05 68V50.2H127.05V68H131.05ZM129.05 34.4H142.4V30.4H129.05V34.4ZM140.4 32.4V41.3H144.4V32.4H140.4ZM142.4 39.3H129.05V43.3H142.4V39.3ZM131.05 41.3V32.4H127.05V41.3H131.05ZM164.615 32.4H162.615V34.4H164.615V32.4ZM177.965 32.4H179.965V30.4H177.965V32.4ZM177.965 59.1V61.1H179.965V59.1H177.965ZM164.615 59.1V57.1H162.615V59.1H164.615ZM164.615 68H162.615V70H164.615V68ZM209.115 68V70H211.115V68H209.115ZM209.115 59.1H211.115V57.1H209.115V59.1ZM195.765 59.1H193.765V61.1H195.765V59.1ZM195.765 32.4V30.4H193.765V32.4H195.765ZM209.115 32.4V34.4H211.115V32.4H209.115ZM209.115 23.5H211.115V21.5H209.115V23.5ZM164.615 23.5V21.5H162.615V23.5H164.615ZM164.615 34.4H177.965V30.4H164.615V34.4ZM175.965 32.4V59.1H179.965V32.4H175.965ZM177.965 57.1H164.615V61.1H177.965V57.1ZM162.615 59.1V68H166.615V59.1H162.615ZM164.615 70H209.115V66H164.615V70ZM211.115 68V59.1H207.115V68H211.115ZM209.115 57.1H195.765V61.1H209.115V57.1ZM197.765 59.1V32.4H193.765V59.1H197.765ZM195.765 34.4H209.115V30.4H195.765V34.4ZM211.115 32.4V23.5H207.115V32.4H211.115ZM209.115 21.5H164.615V25.5H209.115V21.5ZM162.615 23.5V32.4H166.615V23.5H162.615ZM258.048 63.55V61.55H256.048V63.55H258.048ZM262.498 63.55V65.55H264.498V63.55H262.498ZM262.498 50.2H264.498V48.2H262.498V50.2ZM258.048 50.2H256.048V52.2H258.048V50.2ZM258.048 41.3V39.3H256.048V41.3H258.048ZM262.498 41.3V43.3H264.498V41.3H262.498ZM262.498 27.95H264.498V25.95H262.498V27.95ZM258.048 27.95H256.048V29.95H258.048V27.95ZM258.048 23.5H260.048V21.5H258.048V23.5ZM213.548 23.5V21.5H211.548V23.5H213.548ZM213.548 68H211.548V70H213.548V68ZM258.048 68V70H260.048V68H258.048ZM231.348 50.2V48.2H229.348V50.2H231.348ZM244.698 50.2H246.698V48.2H244.698V50.2ZM244.698 59.1V61.1H246.698V59.1H244.698ZM231.348 59.1H229.348V61.1H231.348V59.1ZM231.348 32.4V30.4H229.348V32.4H231.348ZM244.698 32.4H246.698V30.4H244.698V32.4ZM244.698 41.3V43.3H246.698V41.3H244.698ZM231.348 41.3H229.348V43.3H231.348V41.3ZM258.048 65.55H262.498V61.55H258.048V65.55ZM264.498 63.55V50.2H260.498V63.55H264.498ZM262.498 48.2H258.048V52.2H262.498V48.2ZM260.048 50.2V41.3H256.048V50.2H260.048ZM258.048 43.3H262.498V39.3H258.048V43.3ZM264.498 41.3V27.95H260.498V41.3H264.498ZM262.498 25.95H258.048V29.95H262.498V25.95ZM260.048 27.95V23.5H256.048V27.95H260.048ZM258.048 21.5H231.348V25.5H258.048V21.5ZM231.348 21.5H213.548V25.5H231.348V21.5ZM211.548 23.5V68H215.548V23.5H211.548ZM213.548 70H258.048V66H213.548V70ZM260.048 68V63.55H256.048V68H260.048ZM231.348 52.2H244.698V48.2H231.348V52.2ZM242.698 50.2V59.1H246.698V50.2H242.698ZM244.698 57.1H231.348V61.1H244.698V57.1ZM233.348 59.1V50.2H229.348V59.1H233.348ZM231.348 34.4H244.698V30.4H231.348V34.4ZM242.698 32.4V41.3H246.698V32.4H242.698ZM244.698 39.3H231.348V43.3H244.698V39.3ZM233.348 41.3V32.4H229.348V41.3H233.348ZM311.413 63.55V61.55H309.413V63.55H311.413ZM315.863 63.55V65.55H317.863V63.55H315.863ZM315.863 50.2H317.863V48.2H315.863V50.2ZM311.413 50.2H309.413V52.2H311.413V50.2ZM311.413 41.3V39.3H309.413V41.3H311.413ZM315.863 41.3V43.3H317.863V41.3H315.863ZM315.863 27.95H317.863V25.95H315.863V27.95ZM311.413 27.95H309.413V29.95H311.413V27.95ZM311.413 23.5H313.413V21.5H311.413V23.5ZM266.913 23.5V21.5H264.913V23.5H266.913ZM266.913 68H264.913V70H266.913V68ZM311.413 68V70H313.413V68H311.413ZM284.713 50.2V48.2H282.713V50.2H284.713ZM298.063 50.2H300.063V48.2H298.063V50.2ZM298.063 59.1V61.1H300.063V59.1H298.063ZM284.713 59.1H282.713V61.1H284.713V59.1ZM284.713 32.4V30.4H282.713V32.4H284.713ZM298.063 32.4H300.063V30.4H298.063V32.4ZM298.063 41.3V43.3H300.063V41.3H298.063ZM284.713 41.3H282.713V43.3H284.713V41.3ZM311.413 65.55H315.863V61.55H311.413V65.55ZM317.863 63.55V50.2H313.863V63.55H317.863ZM315.863 48.2H311.413V52.2H315.863V48.2ZM313.413 50.2V41.3H309.413V50.2H313.413ZM311.413 43.3H315.863V39.3H311.413V43.3ZM317.863 41.3V27.95H313.863V41.3H317.863ZM315.863 25.95H311.413V29.95H315.863V25.95ZM313.413 27.95V23.5H309.413V27.95H313.413ZM311.413 21.5H284.713V25.5H311.413V21.5ZM284.713 21.5H266.913V25.5H284.713V21.5ZM264.913 23.5V68H268.913V23.5H264.913ZM266.913 70H311.413V66H266.913V70ZM313.413 68V63.55H309.413V68H313.413ZM284.713 52.2H298.063V48.2H284.713V52.2ZM296.063 50.2V59.1H300.063V50.2H296.063ZM298.063 57.1H284.713V61.1H298.063V57.1ZM286.713 59.1V50.2H282.713V59.1H286.713ZM284.713 34.4H298.063V30.4H284.713V34.4ZM296.063 32.4V41.3H300.063V32.4H296.063ZM298.063 39.3H284.713V43.3H298.063V39.3ZM286.713 41.3V32.4H282.713V41.3H286.713ZM320.278 68H318.278V70H320.278V68ZM369.228 68V70H371.228V68H369.228ZM369.228 59.1H371.228V57.1H369.228V59.1ZM338.078 59.1H336.078V61.1H338.078V59.1ZM338.078 23.5H340.078V21.5H338.078V23.5ZM320.278 23.5V21.5H318.278V23.5H320.278ZM320.278 70H369.228V66H320.278V70ZM371.228 68V59.1H367.228V68H371.228ZM369.228 57.1H338.078V61.1H369.228V57.1ZM340.078 59.1V23.5H336.078V59.1H340.078ZM338.078 21.5H320.278V25.5H338.078V21.5ZM318.278 23.5V68H322.278V23.5H318.278ZM449.259 63.55V61.55H447.259V63.55H449.259ZM453.709 63.55V65.55H455.709V63.55H453.709ZM453.709 45.75H455.709V43.75H453.709V45.75ZM449.259 45.75H447.259V47.75H449.259V45.75ZM449.259 41.3H451.259V39.3H449.259V41.3ZM427.009 41.3V39.3H425.009V41.3H427.009ZM427.009 50.2H425.009V52.2H427.009V50.2ZM435.909 50.2H437.909V48.2H435.909V50.2ZM435.909 59.1V61.1H437.909V59.1H435.909ZM422.559 59.1H420.559V61.1H422.559V59.1ZM422.559 32.4V30.4H420.559V32.4H422.559ZM453.709 32.4V34.4H455.709V32.4H453.709ZM453.709 23.5H455.709V21.5H453.709V23.5ZM409.209 23.5V21.5H407.209V23.5H409.209ZM409.209 27.95V29.95H411.209V27.95H409.209ZM404.759 27.95V25.95H402.759V27.95H404.759ZM404.759 63.55H402.759V65.55H404.759V63.55ZM409.209 63.55H411.209V61.55H409.209V63.55ZM409.209 68H407.209V70H409.209V68ZM449.259 68V70H451.259V68H449.259ZM449.259 65.55H453.709V61.55H449.259V65.55ZM455.709 63.55V45.75H451.709V63.55H455.709ZM453.709 43.75H449.259V47.75H453.709V43.75ZM451.259 45.75V41.3H447.259V45.75H451.259ZM449.259 39.3H427.009V43.3H449.259V39.3ZM425.009 41.3V50.2H429.009V41.3H425.009ZM427.009 52.2H435.909V48.2H427.009V52.2ZM433.909 50.2V59.1H437.909V50.2H433.909ZM435.909 57.1H422.559V61.1H435.909V57.1ZM424.559 59.1V32.4H420.559V59.1H424.559ZM422.559 34.4H453.709V30.4H422.559V34.4ZM455.709 32.4V23.5H451.709V32.4H455.709ZM453.709 21.5H409.209V25.5H453.709V21.5ZM407.209 23.5V27.95H411.209V23.5H407.209ZM409.209 25.95H404.759V29.95H409.209V25.95ZM402.759 27.95V63.55H406.759V27.95H402.759ZM404.759 65.55H409.209V61.55H404.759V65.55ZM407.209 63.55V68H411.209V63.55H407.209ZM409.209 70H449.259V66H409.209V70ZM451.259 68V63.55H447.259V68H451.259ZM475.924 50.2V48.2H473.924V50.2H475.924ZM489.274 50.2H491.274V48.2H489.274V50.2ZM489.274 68H487.274V70H489.274V68ZM507.074 68V70H509.074V68H507.074ZM507.074 27.95H509.074V25.95H507.074V27.95ZM502.624 27.95H500.624V29.95H502.624V27.95ZM502.624 23.5H504.624V21.5H502.624V23.5ZM462.574 23.5V21.5H460.574V23.5H462.574ZM462.574 27.95V29.95H464.574V27.95H462.574ZM458.124 27.95V25.95H456.124V27.95H458.124ZM458.124 68H456.124V70H458.124V68ZM475.924 68V70H477.924V68H475.924ZM475.924 32.4V30.4H473.924V32.4H475.924ZM489.274 32.4H491.274V30.4H489.274V32.4ZM489.274 41.3V43.3H491.274V41.3H489.274ZM475.924 41.3H473.924V43.3H475.924V41.3ZM475.924 52.2H489.274V48.2H475.924V52.2ZM487.274 50.2V68H491.274V50.2H487.274ZM489.274 70H507.074V66H489.274V70ZM509.074 68V27.95H505.074V68H509.074ZM507.074 25.95H502.624V29.95H507.074V25.95ZM504.624 27.95V23.5H500.624V27.95H504.624ZM502.624 21.5H489.274V25.5H502.624V21.5ZM489.274 21.5H462.574V25.5H489.274V21.5ZM460.574 23.5V27.95H464.574V23.5H460.574ZM462.574 25.95H458.124V29.95H462.574V25.95ZM456.124 27.95V68H460.124V27.95H456.124ZM458.124 70H475.924V66H458.124V70ZM477.924 68V50.2H473.924V68H477.924ZM475.924 34.4H489.274V30.4H475.924V34.4ZM487.274 32.4V41.3H491.274V32.4H487.274ZM489.274 39.3H475.924V43.3H489.274V39.3ZM477.924 41.3V32.4H473.924V41.3H477.924ZM529.289 45.75V43.75H527.289V45.75H529.289ZM533.739 45.75H535.739V43.75H533.739V45.75ZM533.739 50.2H531.739V52.2H533.739V50.2ZM538.189 50.2H540.189V48.2H538.189V50.2ZM538.189 54.65H536.189V56.65H538.189V54.65ZM542.639 54.65V56.65H544.639V54.65H542.639ZM542.639 50.2V48.2H540.639V50.2H542.639ZM547.089 50.2V52.2H549.089V50.2H547.089ZM547.089 45.75V43.75H545.089V45.75H547.089ZM551.539 45.75H553.539V43.75H551.539V45.75ZM551.539 68H549.539V70H551.539V68ZM569.339 68V70H571.339V68H569.339ZM569.339 23.5H571.339V21.5H569.339V23.5ZM551.539 23.5V21.5H549.539V23.5H551.539ZM551.539 27.95V29.95H553.539V27.95H551.539ZM547.089 27.95V25.95H545.089V27.95H547.089ZM547.089 32.4V34.4H549.089V32.4H547.089ZM542.639 32.4V30.4H540.639V32.4H542.639ZM542.639 36.85V38.85H544.639V36.85H542.639ZM538.189 36.85H536.189V38.85H538.189V36.85ZM538.189 32.4H540.189V30.4H538.189V32.4ZM533.739 32.4H531.739V34.4H533.739V32.4ZM533.739 27.95H535.739V25.95H533.739V27.95ZM529.289 27.95H527.289V29.95H529.289V27.95ZM529.289 23.5H531.289V21.5H529.289V23.5ZM511.489 23.5V21.5H509.489V23.5H511.489ZM511.489 68H509.489V70H511.489V68ZM529.289 68V70H531.289V68H529.289ZM529.289 47.75H533.739V43.75H529.289V47.75ZM531.739 45.75V50.2H535.739V45.75H531.739ZM533.739 52.2H538.189V48.2H533.739V52.2ZM536.189 50.2V54.65H540.189V50.2H536.189ZM538.189 56.65H542.639V52.65H538.189V56.65ZM544.639 54.65V50.2H540.639V54.65H544.639ZM542.639 52.2H547.089V48.2H542.639V52.2ZM549.089 50.2V45.75H545.089V50.2H549.089ZM547.089 47.75H551.539V43.75H547.089V47.75ZM549.539 45.75V68H553.539V45.75H549.539ZM551.539 70H569.339V66H551.539V70ZM571.339 68V23.5H567.339V68H571.339ZM569.339 21.5H551.539V25.5H569.339V21.5ZM549.539 23.5V27.95H553.539V23.5H549.539ZM551.539 25.95H547.089V29.95H551.539V25.95ZM545.089 27.95V32.4H549.089V27.95H545.089ZM547.089 30.4H542.639V34.4H547.089V30.4ZM540.639 32.4V36.85H544.639V32.4H540.639ZM542.639 34.85H538.189V38.85H542.639V34.85ZM540.189 36.85V32.4H536.189V36.85H540.189ZM538.189 30.4H533.739V34.4H538.189V30.4ZM535.739 32.4V27.95H531.739V32.4H535.739ZM533.739 25.95H529.289V29.95H533.739V25.95ZM531.289 27.95V23.5H527.289V27.95H531.289ZM529.289 21.5H511.489V25.5H529.289V21.5ZM509.489 23.5V68H513.489V23.5H509.489ZM511.489 70H529.289V66H511.489V70ZM531.289 68V45.75H527.289V68H531.289ZM578.257 68H576.257V70H578.257V68ZM622.757 68V70H624.757V68H622.757ZM622.757 59.1H624.757V57.1H622.757V59.1ZM591.607 59.1H589.607V61.1H591.607V59.1ZM591.607 50.2V48.2H589.607V50.2H591.607ZM604.957 50.2V52.2H606.957V50.2H604.957ZM604.957 41.3H606.957V39.3H604.957V41.3ZM591.607 41.3H589.607V43.3H591.607V41.3ZM591.607 32.4V30.4H589.607V32.4H591.607ZM622.757 32.4V34.4H624.757V32.4H622.757ZM622.757 23.5H624.757V21.5H622.757V23.5ZM578.257 23.5V21.5H576.257V23.5H578.257ZM578.257 27.95V29.95H580.257V27.95H578.257ZM573.807 27.95V25.95H571.807V27.95H573.807ZM573.807 63.55H571.807V65.55H573.807V63.55ZM578.257 63.55H580.257V61.55H578.257V63.55ZM578.257 70H622.757V66H578.257V70ZM624.757 68V59.1H620.757V68H624.757ZM622.757 57.1H591.607V61.1H622.757V57.1ZM593.607 59.1V50.2H589.607V59.1H593.607ZM591.607 52.2H604.957V48.2H591.607V52.2ZM606.957 50.2V41.3H602.957V50.2H606.957ZM604.957 39.3H591.607V43.3H604.957V39.3ZM593.607 41.3V32.4H589.607V41.3H593.607ZM591.607 34.4H622.757V30.4H591.607V34.4ZM624.757 32.4V23.5H620.757V32.4H624.757ZM622.757 21.5H578.257V25.5H622.757V21.5ZM576.257 23.5V27.95H580.257V23.5H576.257ZM578.257 25.95H573.807V29.95H578.257V25.95ZM571.807 27.95V63.55H575.807V27.95H571.807ZM573.807 65.55H578.257V61.55H573.807V65.55ZM576.257 63.55V68H580.257V63.55H576.257Z" fill="black"/>
</g>
<path d="M70.2826 24.0652H54.2391V31.1957H70.2826V24.0652Z" fill="#FCE740"/>
<path d="M105.935 24.0652H85.4348V28.5217H80.9783V31.1957H105.935V24.0652Z" fill="#FCE740"/>
<path d="M154.957 24.0652H112.174V31.1957H158.522V28.5217H154.957V24.0652Z" fill="#FCE740"/>
<path d="M208.435 24.0652H165.652V31.1957H208.435V24.0652Z" fill="#FCE740"/>
<path d="M261.913 31.1957H214.674V24.0652H257.457V28.5217H261.913V31.1957Z" fill="#FCE740"/>
<path d="M310.935 24.0652H268.152V31.1957H315.391V28.5217H310.935V24.0652Z" fill="#FCE740"/>
<path d="M336.783 24.0652H321.63V31.1957H337.674V24.0652H336.783Z" fill="#FCE740"/>
<path d="M453.543 31.1957H406.304V30.3043V28.5217H410.761V24.0652H453.543V31.1957Z" fill="#FCE740"/>
<path d="M507.022 31.1957H459.783V28.5217H464.239V24.0652H502.565V28.5217H507.022V31.1957Z" fill="#FCE740"/>
<path d="M513.261 24.0652V31.1957H533.761V28.5217H529.304V24.0652H513.261Z" fill="#FCE740"/>
<path d="M548.913 28.5217V31.1957H569.413V24.0652H553.37V28.5217H548.913Z" fill="#FCE740"/>
<path d="M622.891 31.1957H575.652V28.5217H580.109V24.0652H622.891V31.1957Z" fill="#FCE740"/>
<path d="M70.2826 24.0652H54.2391V31.1957H70.2826V24.0652Z" stroke="#FCE740"/>
<path d="M105.935 24.0652H85.4348V28.5217H80.9783V31.1957H105.935V24.0652Z" stroke="#FCE740"/>
<path d="M154.957 24.0652H112.174V31.1957H158.522V28.5217H154.957V24.0652Z" stroke="#FCE740"/>
<path d="M208.435 24.0652H165.652V31.1957H208.435V24.0652Z" stroke="#FCE740"/>
<path d="M261.913 31.1957H214.674V24.0652H257.457V28.5217H261.913V31.1957Z" stroke="#FCE740"/>
<path d="M310.935 24.0652H268.152V31.1957H315.391V28.5217H310.935V24.0652Z" stroke="#FCE740"/>
<path d="M336.783 24.0652H321.63V31.1957H337.674V24.0652H336.783Z" stroke="#FCE740"/>
<path d="M453.543 31.1957H406.304V30.3043V28.5217H410.761V24.0652H453.543V31.1957Z" stroke="#FCE740"/>
<path d="M507.022 31.1957H459.783V28.5217H464.239V24.0652H502.565V28.5217H507.022V31.1957Z" stroke="#FCE740"/>
<path d="M513.261 24.0652V31.1957H533.761V28.5217H529.304V24.0652H513.261Z" stroke="#FCE740"/>
<path d="M548.913 28.5217V31.1957H569.413V24.0652H553.37V28.5217H548.913Z" stroke="#FCE740"/>
<path d="M622.891 31.1957H575.652V28.5217H580.109V24.0652H622.891V31.1957Z" stroke="#FCE740"/>
<path d="M0.760864 59.7174V66.8478H43.5435V62.3913H48V50.8044H31.9565V59.7174H0.760864Z" fill="#FFA800" stroke="#FFA800"/>
<path d="M128.217 50.8044H112.174V66.8478H128.217V50.8044Z" fill="#FFA800"/>
<path d="M159.413 50.8044H143.37V66.8478H159.413V50.8044Z" fill="#FFA800"/>
<path d="M195.065 50.8044H179.022V59.7174H165.652V66.8478H208.435V59.7174H195.065V50.8044Z" fill="#FFA800"/>
<path d="M214.674 66.8478V50.8044H230.717V59.7174H245.87V50.8044H261.913V62.3913H257.457V66.8478H214.674Z" fill="#FFA800"/>
<path d="M268.152 66.8478V50.8044H284.196V59.7174H299.348V50.8044H315.391V62.3913H310.935V66.8478H268.152Z" fill="#FFA800"/>
<path d="M337.674 50.8044H321.63V66.8478H368.87V59.7174H337.674V50.8044Z" fill="#FFA800"/>
<path d="M422.348 50.8044H406.304V62.3913H410.761V66.8478H449.087V62.3913H453.543V50.8044H437.5V59.7174H422.348V50.8044Z" fill="#FFA800"/>
<path d="M459.783 66.8478V50.8044H475.826V66.8478H459.783Z" fill="#FFA800"/>
<path d="M507.022 50.8044H490.978V66.8478H507.022V50.8044Z" fill="#FFA800"/>
<path d="M528.413 50.8044H513.261V66.8478H528.413V50.8044Z" fill="#FFA800"/>
<path d="M569.413 50.8044H553.37V66.8478H569.413V50.8044Z" fill="#FFA800"/>
<path d="M591.696 50.8044H575.652V62.3913H580.109V66.8478H622V59.7174H591.696V50.8044Z" fill="#FFA800"/>
<path d="M128.217 50.8044H112.174V66.8478H128.217V50.8044Z" stroke="#FFA800"/>
<path d="M159.413 50.8044H143.37V66.8478H159.413V50.8044Z" stroke="#FFA800"/>
<path d="M195.065 50.8044H179.022V59.7174H165.652V66.8478H208.435V59.7174H195.065V50.8044Z" stroke="#FFA800"/>
<path d="M214.674 66.8478V50.8044H230.717V59.7174H245.87V50.8044H261.913V62.3913H257.457V66.8478H214.674Z" stroke="#FFA800"/>
<path d="M268.152 66.8478V50.8044H284.196V59.7174H299.348V50.8044H315.391V62.3913H310.935V66.8478H268.152Z" stroke="#FFA800"/>
<path d="M337.674 50.8044H321.63V66.8478H368.87V59.7174H337.674V50.8044Z" stroke="#FFA800"/>
<path d="M422.348 50.8044H406.304V62.3913H410.761V66.8478H449.087V62.3913H453.543V50.8044H437.5V59.7174H422.348V50.8044Z" stroke="#FFA800"/>
<path d="M459.783 66.8478V50.8044H475.826V66.8478H459.783Z" stroke="#FFA800"/>
<path d="M507.022 50.8044H490.978V66.8478H507.022V50.8044Z" stroke="#FFA800"/>
<path d="M528.413 50.8044H513.261V66.8478H528.413V50.8044Z" stroke="#FFA800"/>
<path d="M569.413 50.8044H553.37V66.8478H569.413V50.8044Z" stroke="#FFA800"/>
<path d="M591.696 50.8044H575.652V62.3913H580.109V66.8478H622V59.7174H591.696V50.8044Z" stroke="#FFA800"/>
<path d="M48 24.0652V31.1957H0.760864V28.5217H5.21739V24.0652H48Z" fill="#FCE740" stroke="#FCE740"/>
<path d="M70.2826 66.8478H54.2391V50.8044H92.5652H97.0217V55.2609H101.478V59.7174H105.935V66.8478H85.4348V62.3913H80.9783V57.9348H76.5217V53.4783H70.2826V66.8478Z" fill="#FFA800" stroke="#FFA800"/>
<defs>
<filter id="filter0_d_104_67697" x="0" y="23.5" width="630.757" height="52.5" filterUnits="userSpaceOnUse" color-interpolation-filters="sRGB">
<feFlood flood-opacity="0" result="BackgroundImageFix"/>
<feColorMatrix in="SourceAlpha" type="matrix" values="0 0 0 0 0 0 0 0 0 0 0 0 0 0 0 0 0 0 127 0" result="hardAlpha"/>
<feOffset dx="4" dy="4"/>
<feGaussianBlur stdDeviation="2"/>
<feComposite in2="hardAlpha" operator="out"/>
<feColorMatrix type="matrix" values="0 0 0 0 0 0 0 0 0 0 0 0 0 0 0 0 0 0 0.25 0"/>
<feBlend mode="normal" in2="BackgroundImageFix" result="effect1_dropShadow_104_67697"/>
<feBlend mode="normal" in="SourceGraphic" in2="effect1_dropShadow_104_67697" result="shape"/>
</filter>
</defs>
</svg>
