<svg width="45" height="45" viewBox="0 0 45 45" fill="none" xmlns="http://www.w3.org/2000/svg">
<path fill-rule="evenodd" clip-rule="evenodd" d="M42.7666 2.23211C41.3301 0.794621 39.4185 0 37.3915 0C35.3646 0 33.4529 0.794621 32.0165 2.22319L0.0078125 34.2322L0.400574 44.5267L11.1068 44.6338L42.7666 12.9821C45.7302 10.0178 45.7302 5.19636 42.7666 2.23211ZM9.02484 39.5537L5.27576 39.5178L5.14941 36.259L29.6489 11.759L33.2305 15.3393L9.02484 39.5537ZM36.8312 11.7499L39.1878 9.3928C40.1683 8.41072 40.1683 6.80346 39.1878 5.81245C38.232 4.85716 36.5621 4.85716 35.6063 5.81245L33.2497 8.16954L36.8312 11.7499Z" fill="#000"/>
</svg>
