<svg width="40" height="40" viewBox="0 0 40 40" fill="none" xmlns="http://www.w3.org/2000/svg">
<path d="M37.4859 17.5003H22.4539V2.50732C22.4539 1.13232 21.3289 0.00732422 19.9539 0.00732422C18.5789 0.00732422 17.4539 1.13232 17.4539 2.50732V17.5003H2.5C1.125 17.5003 0 18.6253 0 20.0003C0 21.3753 1.125 22.5003 2.5 22.5003H17.4539V37.4933C17.4539 38.8683 18.5789 39.9933 19.9539 39.9933C21.3289 39.9933 22.4539 38.8683 22.4539 37.4933V22.5004H37.4859C38.8609 22.5004 39.9859 21.3754 39.9859 20.0004C39.9859 18.6254 38.8609 17.5003 37.4859 17.5003Z" fill="#6B6C7E"/>
</svg>
