<svg width="30" height="40" viewBox="0 0 30 40" fill="none" xmlns="http://www.w3.org/2000/svg">
<path fill-rule="evenodd" clip-rule="evenodd" d="M22.5 0V2.57311H30V7.50877H0V2.57311H7.5V0H22.5ZM0 34.4328C0 37.5049 2.5 40 5.57861 40H24.4141C27.4927 40 29.9927 37.5049 29.9927 34.4328V10.0585H0V34.4328ZM5 15.0487H25V33.154C25 34.1755 24.165 35.0098 23.1396 35.0098H6.86035C5.83496 35.0098 5 34.1755 5 33.154V15.0487ZM17.5 17.4659H22.5V32.4367H17.5V17.4659ZM12.5 17.4659H7.5V32.4367H12.5V17.4659Z" fill="#6B6C7E"/>
</svg>
